# xmcd
#
# Track frame offsets: 
#        183
#        26680
#        44243
#        64650
#        79820
#        104855
#        119083
#        135693
#        153073
#        172083
#        194400
#        217458
#        234473
#        250075
#
# Disc length: 3605 seconds
#
# Revision: 0
# Processed by: cddbd v1.4PL0 Copyright (c) Steve Scherf et al.
# Submitted via: ExactAudioCopy v0.90b4
#
DISCID=da0e130e
DTITLE=Ella and Louis - Cheek to Cheek
DYEAR=1990
DGENRE=Rhythmic Soul
TTITLE0=Cheek to Cheek
TTITLE1=Love is here to Stay
TTITLE2=A Foggy Day
TTITLE3=I'm Puttin' all my eggs in one Basket
TTITLE4=The Nearness of You
TTITLE5=I've got my Love to keep me Warm
TTITLE6=Moonlight in Vermont
TTITLE7=A Fine Romance
TTITLE8=Let's call the whole thing off
TTITLE9=Don't be that way
TTITLE10=Tenderly
TTITLE11=Can't we be friends
TTITLE12=Stars fell on Alabama
TTITLE13=They can't take that away from me
EXTD=
EXTT0=
EXTT1=
EXTT2=
EXTT3=
EXTT4=
EXTT5=
EXTT6=
EXTT7=
EXTT8=
EXTT9=
EXTT10=
EXTT11=
EXTT12=
EXTT13=
PLAYORDER=
